<svg viewBox="0 0 894 664" fill="none" xmlns="http://www.w3.org/2000/svg">
<g filter="url(#filter0_ddddd_0_1)">
<rect x="150" y="116" width="567" height="337" rx="14" fill="white"/>
<rect x="150.5" y="116.5" width="566" height="336" rx="13.5" stroke="white"/>
</g>
<path d="M204.5 144.703C192.481 144.703 182.703 154.481 182.703 166.5C182.703 178.519 192.481 188.297 204.5 188.297C216.519 188.297 226.297 178.519 226.297 166.5C226.297 154.481 216.519 144.703 204.5 144.703ZM189.031 170.016C188.643 170.016 188.328 169.701 188.328 169.312V163.688C188.328 163.299 188.643 162.984 189.031 162.984H219.969C220.357 162.984 220.672 163.299 220.672 163.688V169.312C220.672 169.701 220.357 170.016 219.969 170.016H189.031ZM209.944 171.422C209.804 173.359 209.59 175.138 209.318 176.747C207.772 176.941 206.159 177.047 204.5 177.047C202.841 177.047 201.228 176.941 199.683 176.747C199.411 175.138 199.196 173.359 199.056 171.422H209.944ZM199.056 161.578C199.196 159.641 199.41 157.862 199.682 156.253C201.228 156.059 202.841 155.953 204.5 155.953C206.159 155.953 207.772 156.059 209.317 156.253C209.59 157.862 209.804 159.641 209.944 161.578H199.056ZM211.359 161.578C211.235 159.846 211.04 158.119 210.775 156.466C212.908 156.824 214.889 157.357 216.65 158.036C216.989 159.162 217.263 160.346 217.464 161.578H211.359ZM210.52 155.014C209.853 151.535 208.854 148.509 207.534 146.651C211.145 147.95 214.253 151.512 216.09 156.385C214.379 155.792 212.508 155.328 210.52 155.014V155.014ZM209.049 154.811C207.581 154.639 206.06 154.547 204.5 154.547C202.94 154.547 201.419 154.639 199.951 154.811C201.08 149.265 202.904 146.109 204.5 146.109C206.095 146.109 207.919 149.265 209.049 154.811ZM198.479 155.014C196.491 155.328 194.62 155.793 192.909 156.384C194.746 151.511 197.853 147.949 201.465 146.651C200.145 148.509 199.146 151.534 198.479 155.014V155.014ZM198.225 156.466C197.96 158.118 197.765 159.845 197.641 161.578H191.536C191.737 160.346 192.011 159.162 192.35 158.036C194.111 157.357 196.092 156.824 198.225 156.466ZM190.114 161.578H189.031C187.868 161.578 186.922 162.525 186.922 163.688V169.312C186.922 170.475 187.868 171.422 189.031 171.422H190.114C190.265 172.394 190.46 173.339 190.696 174.253C186.65 172.325 184.109 169.564 184.109 166.5C184.109 163.436 186.65 160.675 190.696 158.747C190.46 159.661 190.265 160.606 190.114 161.578ZM191.536 171.422H197.641C197.765 173.155 197.96 174.882 198.225 176.534C196.092 176.176 194.111 175.643 192.35 174.964C192.011 173.838 191.737 172.654 191.536 171.422ZM198.479 177.986C199.146 181.466 200.145 184.491 201.465 186.349C197.853 185.051 194.746 181.489 192.909 176.616C194.621 177.208 196.492 177.672 198.479 177.986V177.986ZM199.951 178.189C201.419 178.361 202.94 178.453 204.5 178.453C206.06 178.453 207.581 178.361 209.049 178.189C207.92 183.735 206.096 186.891 204.5 186.891C202.904 186.891 201.08 183.735 199.951 178.189V178.189ZM210.521 177.986C212.509 177.672 214.38 177.207 216.091 176.616C214.254 181.489 211.147 185.051 207.535 186.349C208.855 184.491 209.854 181.466 210.521 177.986V177.986ZM210.775 176.534C211.04 174.882 211.235 173.155 211.359 171.422H217.464C217.263 172.654 216.989 173.838 216.65 174.964C214.889 175.643 212.908 176.176 210.775 176.534V176.534ZM218.886 171.422H219.969C221.132 171.422 222.078 170.475 222.078 169.312V163.688C222.078 162.525 221.132 161.578 219.969 161.578H218.886C218.734 160.606 218.54 159.66 218.304 158.746C222.35 160.675 224.891 163.436 224.891 166.5C224.891 169.564 222.35 172.325 218.304 174.253C218.54 173.339 218.735 172.394 218.886 171.422ZM224.259 161.462C222.776 159.72 220.552 158.207 217.807 157.043C216.455 152.911 214.251 149.54 211.561 147.371C217.793 149.679 222.598 154.948 224.259 161.462V161.462ZM197.434 147.373C194.745 149.541 192.542 152.911 191.192 157.043C188.448 158.207 186.223 159.72 184.741 161.462C186.402 154.95 191.205 149.682 197.434 147.373ZM184.741 171.538C186.223 173.28 188.448 174.793 191.192 175.957C192.542 180.089 194.746 183.459 197.434 185.627C191.205 183.318 186.402 178.05 184.741 171.538ZM211.566 185.627C214.255 183.459 216.458 180.089 217.808 175.957C220.552 174.793 222.777 173.28 224.259 171.538C222.598 178.05 217.795 183.318 211.566 185.627Z" fill="#142F80"/>
<path d="M197.892 166.016L197.419 164.833C197.311 164.566 197.053 164.391 196.766 164.391C196.478 164.391 196.22 164.566 196.112 164.833L195.639 166.016L195.35 164.275L193.962 164.506L194.665 168.725C194.717 169.036 194.97 169.275 195.283 169.308C195.602 169.342 195.894 169.163 196.012 168.87L196.766 166.987L197.519 168.87C197.627 169.14 197.887 169.313 198.172 169.313C198.196 169.313 198.222 169.311 198.247 169.308C198.561 169.275 198.814 169.036 198.865 168.725L199.568 164.506L198.181 164.275L197.892 166.016Z" fill="#142F80"/>
<path d="M204.22 166.016L203.747 164.833C203.639 164.566 203.381 164.391 203.094 164.391C202.806 164.391 202.548 164.566 202.441 164.833L201.967 166.016L201.678 164.275L200.29 164.506L200.994 168.725C201.045 169.036 201.298 169.275 201.612 169.308C201.929 169.342 202.223 169.163 202.34 168.87L203.094 166.987L203.847 168.87C203.955 169.14 204.215 169.313 204.5 169.313C204.525 169.313 204.55 169.311 204.575 169.308C204.889 169.275 205.142 169.036 205.193 168.725L205.896 164.506L204.509 164.275L204.22 166.016Z" fill="#142F80"/>
<path d="M210.548 166.016L210.075 164.833C209.968 164.566 209.709 164.391 209.422 164.391C209.134 164.391 208.876 164.566 208.769 164.833L208.295 166.016L208.006 164.275L206.619 164.506L207.322 168.725C207.373 169.036 207.626 169.275 207.94 169.308C208.256 169.342 208.551 169.163 208.668 168.87L209.422 166.987L210.175 168.87C210.283 169.14 210.543 169.313 210.828 169.313C210.853 169.313 210.878 169.311 210.903 169.308C211.217 169.275 211.47 169.036 211.521 168.725L212.225 164.506L210.837 164.275L210.548 166.016Z" fill="#142F80"/>
<path d="M213.992 167.203C213.411 167.203 212.938 167.676 212.938 168.258C212.938 168.839 213.411 169.312 213.992 169.312C214.574 169.312 215.047 168.839 215.047 168.258C215.047 167.676 214.574 167.203 213.992 167.203Z" fill="#142F80"/>
<rect x="246" y="145" width="367" height="44" rx="10" fill="#F3F3F3"/>
<path d="M264.32 164.28C264.824 164.28 265.272 164.388 265.664 164.604C266.064 164.82 266.376 165.14 266.6 165.564C266.832 165.988 266.948 166.5 266.948 167.1V171H265.592V167.304C265.592 166.712 265.444 166.26 265.148 165.948C264.852 165.628 264.448 165.468 263.936 165.468C263.424 165.468 263.016 165.628 262.712 165.948C262.416 166.26 262.268 166.712 262.268 167.304V171H260.9V162.12H262.268V165.156C262.5 164.876 262.792 164.66 263.144 164.508C263.504 164.356 263.896 164.28 264.32 164.28ZM270.409 165.504V169.164C270.409 169.412 270.465 169.592 270.577 169.704C270.697 169.808 270.897 169.86 271.177 169.86H272.017V171H270.937C270.321 171 269.849 170.856 269.521 170.568C269.193 170.28 269.029 169.812 269.029 169.164V165.504H268.249V164.388H269.029V162.744H270.409V164.388H272.017V165.504H270.409ZM274.994 165.504V169.164C274.994 169.412 275.05 169.592 275.162 169.704C275.282 169.808 275.482 169.86 275.762 169.86H276.602V171H275.522C274.906 171 274.434 170.856 274.106 170.568C273.778 170.28 273.614 169.812 273.614 169.164V165.504H272.834V164.388H273.614V162.744H274.994V164.388H276.602V165.504H274.994ZM279.351 165.36C279.583 165.056 279.899 164.8 280.299 164.592C280.699 164.384 281.151 164.28 281.655 164.28C282.231 164.28 282.755 164.424 283.227 164.712C283.707 164.992 284.083 165.388 284.355 165.9C284.627 166.412 284.763 167 284.763 167.664C284.763 168.328 284.627 168.924 284.355 169.452C284.083 169.972 283.707 170.38 283.227 170.676C282.755 170.964 282.231 171.108 281.655 171.108C281.151 171.108 280.703 171.008 280.311 170.808C279.919 170.6 279.599 170.344 279.351 170.04V174.144H277.983V164.388H279.351V165.36ZM283.371 167.664C283.371 167.208 283.275 166.816 283.083 166.488C282.899 166.152 282.651 165.9 282.339 165.732C282.035 165.556 281.707 165.468 281.355 165.468C281.011 165.468 280.683 165.556 280.371 165.732C280.067 165.908 279.819 166.164 279.627 166.5C279.443 166.836 279.351 167.232 279.351 167.688C279.351 168.144 279.443 168.544 279.627 168.888C279.819 169.224 280.067 169.48 280.371 169.656C280.683 169.832 281.011 169.92 281.355 169.92C281.707 169.92 282.035 169.832 282.339 169.656C282.651 169.472 282.899 169.208 283.083 168.864C283.275 168.52 283.371 168.12 283.371 167.664ZM288.635 171.108C288.115 171.108 287.647 171.016 287.231 170.832C286.823 170.64 286.499 170.384 286.259 170.064C286.019 169.736 285.891 169.372 285.875 168.972H287.291C287.315 169.252 287.447 169.488 287.687 169.68C287.935 169.864 288.243 169.956 288.611 169.956C288.995 169.956 289.291 169.884 289.499 169.74C289.715 169.588 289.823 169.396 289.823 169.164C289.823 168.916 289.703 168.732 289.463 168.612C289.231 168.492 288.859 168.36 288.347 168.216C287.851 168.08 287.447 167.948 287.135 167.82C286.823 167.692 286.551 167.496 286.319 167.232C286.095 166.968 285.983 166.62 285.983 166.188C285.983 165.836 286.087 165.516 286.295 165.228C286.503 164.932 286.799 164.7 287.183 164.532C287.575 164.364 288.023 164.28 288.527 164.28C289.279 164.28 289.883 164.472 290.339 164.856C290.803 165.232 291.051 165.748 291.083 166.404H289.715C289.691 166.108 289.571 165.872 289.355 165.696C289.139 165.52 288.847 165.432 288.479 165.432C288.119 165.432 287.843 165.5 287.651 165.636C287.459 165.772 287.363 165.952 287.363 166.176C287.363 166.352 287.427 166.5 287.555 166.62C287.683 166.74 287.839 166.836 288.023 166.908C288.207 166.972 288.479 167.056 288.839 167.16C289.319 167.288 289.711 167.42 290.015 167.556C290.327 167.684 290.595 167.876 290.819 168.132C291.043 168.388 291.159 168.728 291.167 169.152C291.167 169.528 291.063 169.864 290.855 170.16C290.647 170.456 290.351 170.688 289.967 170.856C289.591 171.024 289.147 171.108 288.635 171.108ZM293.318 171.084C293.07 171.084 292.862 171 292.694 170.832C292.526 170.664 292.442 170.456 292.442 170.208C292.442 169.96 292.526 169.752 292.694 169.584C292.862 169.416 293.07 169.332 293.318 169.332C293.558 169.332 293.762 169.416 293.93 169.584C294.098 169.752 294.182 169.96 294.182 170.208C294.182 170.456 294.098 170.664 293.93 170.832C293.762 171 293.558 171.084 293.318 171.084ZM293.318 166.044C293.07 166.044 292.862 165.96 292.694 165.792C292.526 165.624 292.442 165.416 292.442 165.168C292.442 164.92 292.526 164.712 292.694 164.544C292.862 164.376 293.07 164.292 293.318 164.292C293.558 164.292 293.762 164.376 293.93 164.544C294.098 164.712 294.182 164.92 294.182 165.168C294.182 165.416 294.098 165.624 293.93 165.792C293.762 165.96 293.558 166.044 293.318 166.044ZM300.267 159.672L297.003 173.1H295.659L298.911 159.672H300.267ZM306.551 159.672L303.287 173.1H301.943L305.195 159.672H306.551ZM314.347 164.388L310.291 174.108H308.875L310.219 170.892L307.615 164.388H309.139L310.999 169.428L312.931 164.388H314.347ZM318.368 171.108C317.744 171.108 317.18 170.968 316.676 170.688C316.172 170.4 315.776 170 315.488 169.488C315.2 168.968 315.056 168.368 315.056 167.688C315.056 167.016 315.204 166.42 315.5 165.9C315.796 165.38 316.2 164.98 316.712 164.7C317.224 164.42 317.796 164.28 318.428 164.28C319.06 164.28 319.632 164.42 320.144 164.7C320.656 164.98 321.06 165.38 321.356 165.9C321.652 166.42 321.8 167.016 321.8 167.688C321.8 168.36 321.648 168.956 321.344 169.476C321.04 169.996 320.624 170.4 320.096 170.688C319.576 170.968 319 171.108 318.368 171.108ZM318.368 169.92C318.72 169.92 319.048 169.836 319.352 169.668C319.664 169.5 319.916 169.248 320.108 168.912C320.3 168.576 320.396 168.168 320.396 167.688C320.396 167.208 320.304 166.804 320.12 166.476C319.936 166.14 319.692 165.888 319.388 165.72C319.084 165.552 318.756 165.468 318.404 165.468C318.052 165.468 317.724 165.552 317.42 165.72C317.124 165.888 316.888 166.14 316.712 166.476C316.536 166.804 316.448 167.208 316.448 167.688C316.448 168.4 316.628 168.952 316.988 169.344C317.356 169.728 317.816 169.92 318.368 169.92ZM329.26 164.388V171H327.892V170.22C327.676 170.492 327.392 170.708 327.04 170.868C326.696 171.02 326.328 171.096 325.936 171.096C325.416 171.096 324.948 170.988 324.532 170.772C324.124 170.556 323.8 170.236 323.56 169.812C323.328 169.388 323.212 168.876 323.212 168.276V164.388H324.568V168.072C324.568 168.664 324.716 169.12 325.012 169.44C325.308 169.752 325.712 169.908 326.224 169.908C326.736 169.908 327.14 169.752 327.436 169.44C327.74 169.12 327.892 168.664 327.892 168.072V164.388H329.26ZM332.553 165.348C332.753 165.012 333.017 164.752 333.345 164.568C333.681 164.376 334.077 164.28 334.533 164.28V165.696H334.185C333.649 165.696 333.241 165.832 332.961 166.104C332.689 166.376 332.553 166.848 332.553 167.52V171H331.185V164.388H332.553V165.348ZM340.986 166.08V167.232H336.054V166.08H340.986ZM345.45 171.108C344.93 171.108 344.462 171.016 344.046 170.832C343.638 170.64 343.314 170.384 343.074 170.064C342.834 169.736 342.706 169.372 342.69 168.972H344.106C344.13 169.252 344.262 169.488 344.502 169.68C344.75 169.864 345.058 169.956 345.426 169.956C345.81 169.956 346.106 169.884 346.314 169.74C346.53 169.588 346.638 169.396 346.638 169.164C346.638 168.916 346.518 168.732 346.278 168.612C346.046 168.492 345.674 168.36 345.162 168.216C344.666 168.08 344.262 167.948 343.95 167.82C343.638 167.692 343.366 167.496 343.134 167.232C342.91 166.968 342.798 166.62 342.798 166.188C342.798 165.836 342.902 165.516 343.11 165.228C343.318 164.932 343.614 164.7 343.998 164.532C344.39 164.364 344.838 164.28 345.342 164.28C346.094 164.28 346.698 164.472 347.154 164.856C347.618 165.232 347.866 165.748 347.898 166.404H346.53C346.506 166.108 346.386 165.872 346.17 165.696C345.954 165.52 345.662 165.432 345.294 165.432C344.934 165.432 344.658 165.5 344.466 165.636C344.274 165.772 344.178 165.952 344.178 166.176C344.178 166.352 344.242 166.5 344.37 166.62C344.498 166.74 344.654 166.836 344.838 166.908C345.022 166.972 345.294 167.056 345.654 167.16C346.134 167.288 346.526 167.42 346.83 167.556C347.142 167.684 347.41 167.876 347.634 168.132C347.858 168.388 347.974 168.728 347.982 169.152C347.982 169.528 347.878 169.864 347.67 170.16C347.462 170.456 347.166 170.688 346.782 170.856C346.406 171.024 345.962 171.108 345.45 171.108ZM350.276 163.512C350.028 163.512 349.82 163.428 349.652 163.26C349.484 163.092 349.4 162.884 349.4 162.636C349.4 162.388 349.484 162.18 349.652 162.012C349.82 161.844 350.028 161.76 350.276 161.76C350.516 161.76 350.72 161.844 350.888 162.012C351.056 162.18 351.14 162.388 351.14 162.636C351.14 162.884 351.056 163.092 350.888 163.26C350.72 163.428 350.516 163.512 350.276 163.512ZM350.948 164.388V171H349.58V164.388H350.948ZM354.46 165.504V169.164C354.46 169.412 354.516 169.592 354.628 169.704C354.748 169.808 354.948 169.86 355.228 169.86H356.068V171H354.988C354.372 171 353.9 170.856 353.572 170.568C353.244 170.28 353.08 169.812 353.08 169.164V165.504H352.3V164.388H353.08V162.744H354.46V164.388H356.068V165.504H354.46ZM363.509 167.532C363.509 167.78 363.493 168.004 363.461 168.204H358.409C358.449 168.732 358.645 169.156 358.997 169.476C359.349 169.796 359.781 169.956 360.293 169.956C361.029 169.956 361.549 169.648 361.853 169.032H363.329C363.129 169.64 362.765 170.14 362.237 170.532C361.717 170.916 361.069 171.108 360.293 171.108C359.661 171.108 359.093 170.968 358.589 170.688C358.093 170.4 357.701 170 357.413 169.488C357.133 168.968 356.993 168.368 356.993 167.688C356.993 167.008 357.129 166.412 357.401 165.9C357.681 165.38 358.069 164.98 358.565 164.7C359.069 164.42 359.645 164.28 360.293 164.28C360.917 164.28 361.473 164.416 361.961 164.688C362.449 164.96 362.829 165.344 363.101 165.84C363.373 166.328 363.509 166.892 363.509 167.532ZM362.081 167.1C362.073 166.596 361.893 166.192 361.541 165.888C361.189 165.584 360.753 165.432 360.233 165.432C359.761 165.432 359.357 165.584 359.021 165.888C358.685 166.184 358.485 166.588 358.421 167.1H362.081ZM365.527 171.084C365.279 171.084 365.071 171 364.903 170.832C364.735 170.664 364.651 170.456 364.651 170.208C364.651 169.96 364.735 169.752 364.903 169.584C365.071 169.416 365.279 169.332 365.527 169.332C365.767 169.332 365.971 169.416 366.139 169.584C366.307 169.752 366.391 169.96 366.391 170.208C366.391 170.456 366.307 170.664 366.139 170.832C365.971 171 365.767 171.084 365.527 171.084ZM367.534 167.688C367.534 167.008 367.67 166.412 367.942 165.9C368.222 165.38 368.606 164.98 369.094 164.7C369.582 164.42 370.142 164.28 370.774 164.28C371.574 164.28 372.234 164.472 372.754 164.856C373.282 165.232 373.638 165.772 373.822 166.476H372.346C372.226 166.148 372.034 165.892 371.77 165.708C371.506 165.524 371.174 165.432 370.774 165.432C370.214 165.432 369.766 165.632 369.43 166.032C369.102 166.424 368.938 166.976 368.938 167.688C368.938 168.4 369.102 168.956 369.43 169.356C369.766 169.756 370.214 169.956 370.774 169.956C371.566 169.956 372.09 169.608 372.346 168.912H373.822C373.63 169.584 373.27 170.12 372.742 170.52C372.214 170.912 371.558 171.108 370.774 171.108C370.142 171.108 369.582 170.968 369.094 170.688C368.606 170.4 368.222 170 367.942 169.488C367.67 168.968 367.534 168.368 367.534 167.688ZM378.173 171.108C377.549 171.108 376.985 170.968 376.481 170.688C375.977 170.4 375.581 170 375.293 169.488C375.005 168.968 374.861 168.368 374.861 167.688C374.861 167.016 375.009 166.42 375.305 165.9C375.601 165.38 376.005 164.98 376.517 164.7C377.029 164.42 377.601 164.28 378.233 164.28C378.865 164.28 379.437 164.42 379.949 164.7C380.461 164.98 380.865 165.38 381.161 165.9C381.457 166.42 381.605 167.016 381.605 167.688C381.605 168.36 381.453 168.956 381.149 169.476C380.845 169.996 380.429 170.4 379.901 170.688C379.381 170.968 378.805 171.108 378.173 171.108ZM378.173 169.92C378.525 169.92 378.853 169.836 379.157 169.668C379.469 169.5 379.721 169.248 379.913 168.912C380.105 168.576 380.201 168.168 380.201 167.688C380.201 167.208 380.109 166.804 379.925 166.476C379.741 166.14 379.497 165.888 379.193 165.72C378.889 165.552 378.561 165.468 378.209 165.468C377.857 165.468 377.529 165.552 377.225 165.72C376.929 165.888 376.693 166.14 376.517 166.476C376.341 166.804 376.253 167.208 376.253 167.688C376.253 168.4 376.433 168.952 376.793 169.344C377.161 169.728 377.621 169.92 378.173 169.92ZM391.081 164.28C391.601 164.28 392.065 164.388 392.473 164.604C392.889 164.82 393.213 165.14 393.445 165.564C393.685 165.988 393.805 166.5 393.805 167.1V171H392.449V167.304C392.449 166.712 392.301 166.26 392.005 165.948C391.709 165.628 391.305 165.468 390.793 165.468C390.281 165.468 389.873 165.628 389.569 165.948C389.273 166.26 389.125 166.712 389.125 167.304V171H387.769V167.304C387.769 166.712 387.621 166.26 387.325 165.948C387.029 165.628 386.625 165.468 386.113 165.468C385.601 165.468 385.193 165.628 384.889 165.948C384.593 166.26 384.445 166.712 384.445 167.304V171H383.077V164.388H384.445V165.144C384.669 164.872 384.953 164.66 385.297 164.508C385.641 164.356 386.009 164.28 386.401 164.28C386.929 164.28 387.401 164.392 387.817 164.616C388.233 164.84 388.553 165.164 388.777 165.588C388.977 165.188 389.289 164.872 389.713 164.64C390.137 164.4 390.593 164.28 391.081 164.28Z" fill="#142F80"/>
<rect x="226" y="216" width="88" height="88" rx="5" fill="#D0D0D0"/>
<rect x="335" y="216" width="88" height="88" rx="5" fill="#D0D0D0"/>
<rect x="444" y="216" width="88" height="88" rx="5" fill="#D0D0D0"/>
<rect x="553" y="216" width="88" height="88" rx="5" fill="#D0D0D0"/>
<rect x="335" y="325" width="88" height="88" rx="5" fill="#D0D0D0"/>
<rect x="444" y="325" width="88" height="88" rx="5" fill="#D0D0D0"/>
<rect x="553" y="325" width="88" height="88" rx="5" fill="#D0D0D0"/>
<defs>
<filter id="filter0_ddddd_0_1" x="0.663523" y="0.0564346" width="893" height="663" filterUnits="userSpaceOnUse" color-interpolation-filters="sRGB">
<feFlood flood-opacity="0" result="BackgroundImageFix"/>
<feColorMatrix in="SourceAlpha" type="matrix" values="0 0 0 0 0 0 0 0 0 0 0 0 0 0 0 0 0 0 127 0" result="hardAlpha"/>
<feOffset dx="0.371648" dy="1.27994"/>
<feGaussianBlur stdDeviation="3.7816"/>
<feColorMatrix type="matrix" values="0 0 0 0 0 0 0 0 0 0 0 0 0 0 0 0 0 0 0.016608 0"/>
<feBlend mode="normal" in2="BackgroundImageFix" result="effect1_dropShadow_0_1"/>
<feColorMatrix in="SourceAlpha" type="matrix" values="0 0 0 0 0 0 0 0 0 0 0 0 0 0 0 0 0 0 127 0" result="hardAlpha"/>
<feOffset dx="1.66148" dy="5.72206"/>
<feGaussianBlur stdDeviation="8.7368"/>
<feColorMatrix type="matrix" values="0 0 0 0 0 0 0 0 0 0 0 0 0 0 0 0 0 0 0.026304 0"/>
<feBlend mode="normal" in2="effect1_dropShadow_0_1" result="effect2_dropShadow_0_1"/>
<feColorMatrix in="SourceAlpha" type="matrix" values="0 0 0 0 0 0 0 0 0 0 0 0 0 0 0 0 0 0 127 0" result="hardAlpha"/>
<feOffset dx="4.13185" dy="14.2299"/>
<feGaussianBlur stdDeviation="19.9512"/>
<feColorMatrix type="matrix" values="0 0 0 0 0 0 0 0 0 0 0 0 0 0 0 0 0 0 0.033696 0"/>
<feBlend mode="normal" in2="effect2_dropShadow_0_1" result="effect3_dropShadow_0_1"/>
<feColorMatrix in="SourceAlpha" type="matrix" values="0 0 0 0 0 0 0 0 0 0 0 0 0 0 0 0 0 0 127 0" result="hardAlpha"/>
<feOffset dx="8.04508" dy="27.7068"/>
<feGaussianBlur stdDeviation="42.5104"/>
<feColorMatrix type="matrix" values="0 0 0 0 0 0 0 0 0 0 0 0 0 0 0 0 0 0 0.043392 0"/>
<feBlend mode="normal" in2="effect3_dropShadow_0_1" result="effect4_dropShadow_0_1"/>
<feColorMatrix in="SourceAlpha" type="matrix" values="0 0 0 0 0 0 0 0 0 0 0 0 0 0 0 0 0 0 127 0" result="hardAlpha"/>
<feOffset dx="13.6635" dy="47.0564"/>
<feGaussianBlur stdDeviation="81.5"/>
<feColorMatrix type="matrix" values="0 0 0 0 0 0 0 0 0 0 0 0 0 0 0 0 0 0 0.06 0"/>
<feBlend mode="normal" in2="effect4_dropShadow_0_1" result="effect5_dropShadow_0_1"/>
<feBlend mode="normal" in="SourceGraphic" in2="effect5_dropShadow_0_1" result="shape"/>
</filter>
</defs>
</svg>