<svg viewBox="0 0 104 104" fill="none" xmlns="http://www.w3.org/2000/svg">
<path d="M52.001 0.0253906C35.9823 0.0253906 21.4661 7.53735 11.9645 18.9271L8.06642 15.0899C7.27462 14.2372 6.05626 13.9327 4.96012 14.359C3.86378 14.6636 3.07198 15.6379 2.94996 16.7951L0.026595 36.8947C-0.303525 39.3692 2.55041 40.7796 3.49834 40.3055C4.11777 40.2174 24.8926 37.2587 23.5979 37.4431C24.7551 37.321 25.669 36.5292 26.0344 35.4329C26.3999 34.3366 26.156 33.1184 25.3035 32.2659L20.6745 27.6369C27.9226 18.3787 39.3933 12.41 52.0014 12.41C73.7455 12.41 91.7336 30.1339 91.7945 51.878C91.7945 51.9389 91.7945 51.9389 91.7945 52C91.7945 52.7744 91.7689 53.5491 91.7208 54.3172C91.6008 56.2433 93.2843 57.8013 95.2045 57.5205L101.343 56.6219C102.798 56.4089 103.896 55.1865 103.946 53.717C103.966 53.14 103.976 52.565 103.976 51.9998C103.976 23.4852 80.6437 0.0253906 52.001 0.0253906Z" fill="#6080AE"/>
<path d="M100.504 63.0854C99.8845 63.1735 79.1096 66.1322 80.4043 65.9478C79.2471 66.0698 78.3333 66.8616 77.9678 67.958C77.6024 69.0543 77.8462 70.2725 78.6987 71.1254L83.5715 75.998C76.384 85.4387 64.7914 91.5904 52.0008 91.5904C30.1956 91.5904 12.2077 73.8051 12.2077 52.0004C12.2282 51.604 12.1586 50.7509 12.2922 49.1294C12.4528 47.1758 10.7529 45.5906 8.83203 45.8613L2.69435 46.7251C1.24455 46.9296 0.142319 48.1374 0.0765386 49.6006C-2.17371e-06 51.2971 0.0345122 52.6634 0.0263912 53.279C0.696377 81.2359 23.8616 103.975 52.001 103.975C68.2023 103.975 82.8408 96.3408 92.3425 84.7076L95.9358 88.301C96.7357 89.1898 98.0651 89.4229 99.0421 89.0319C100.138 88.7273 100.93 87.753 101.052 86.5958L103.976 66.4962C104.227 64.6107 102.487 62.7546 100.504 63.0854Z" fill="#6080AE"/>
</svg>
