<svg width="98" height="110" viewBox="0 0 98 110" fill="none" xmlns="http://www.w3.org/2000/svg">
<path d="M85.4878 21.1817C85.4117 20.6263 84.9253 20.3191 84.5242 20.2855C84.1231 20.252 76.2929 20.133 76.2929 20.133C76.2929 20.133 69.7442 13.773 69.0973 13.1257C68.4504 12.4783 67.1867 12.6747 66.6963 12.8191C66.6889 12.8212 65.4673 13.1996 63.4055 13.8379C63.0615 12.7203 62.5541 11.3476 61.8309 9.96832C59.499 5.5202 56.0853 3.16572 51.9593 3.15971C51.9545 3.15971 51.9502 3.15971 51.9453 3.15971C51.6593 3.15971 51.3742 3.18656 51.0889 3.21256C50.9678 3.06647 50.8451 2.92166 50.716 2.78352C48.9196 0.86088 46.6129 -0.075839 43.8519 0.00515707C38.5221 0.157911 33.2169 4.00641 28.9138 10.841C25.8847 15.6514 23.5836 21.6943 22.9291 26.3712C16.8108 28.2659 12.5301 29.5917 12.4375 29.6207C9.34908 30.5899 9.25197 30.687 8.84699 33.5966C8.54041 35.7994 0.46035 98.2884 0.46035 98.2884L68.1864 110L97.5392 102.704C97.5392 102.704 85.5636 21.737 85.4878 21.1817ZM26.7233 25.196C28.5546 16.6332 35.7295 3.78705 43.9544 3.55051C45.2056 3.5243 46.2595 3.79887 47.1594 4.39119C45.72 5.13863 44.3276 6.21285 43.0215 7.61363C39.6365 11.2449 37.0435 16.8833 36.0095 22.3203C32.7825 23.3196 29.6267 24.2969 26.7233 25.196ZM51.2142 17.6125C47.6662 18.711 43.7928 19.9104 39.9072 21.1136C41.0011 16.9288 43.0718 12.7624 45.6164 10.0328C46.563 9.01742 47.8873 7.88434 49.4552 7.23744C50.9304 10.3112 51.2498 14.6687 51.2142 17.6125ZM54.7569 16.5155C54.7176 13.8168 54.3954 10.0633 53.1383 6.8185C57.1819 7.58463 59.1728 12.1599 60.0131 14.888C58.4548 15.3703 56.6798 15.9199 54.7569 16.5155Z" fill="#95BF47"/>
<path d="M84.5242 20.2856C84.1231 20.252 76.2929 20.133 76.2929 20.133C76.2929 20.133 69.7442 13.773 69.0973 13.1257C68.8561 12.8842 68.5289 12.7606 68.1881 12.7074L68.1898 109.999L97.5392 102.704C97.5392 102.704 85.5638 21.737 85.4878 21.1817C85.4117 20.6263 84.9253 20.3191 84.5242 20.2856Z" fill="#5E8E3E"/>
<path d="M51.9202 35.3779L48.5108 48.1312C48.5108 48.1312 44.7081 46.3996 40.1996 46.6843C33.589 47.1017 33.5188 51.2716 33.5847 52.3166C33.9448 58.0205 48.9499 59.2668 49.7934 72.6262C50.4571 83.1368 44.2184 90.3263 35.2292 90.8939C24.4421 91.575 18.5023 85.2098 18.5023 85.2098L20.788 75.4849C20.788 75.4849 26.7656 79.9949 31.5506 79.6929C34.6762 79.4954 35.7929 76.9534 35.6795 75.1556C35.2096 67.7151 22.991 68.1534 22.2191 55.9281C21.5694 45.6388 28.3258 35.2153 43.2342 34.2738C48.9785 33.9114 51.9202 35.3779 51.9202 35.3779Z" fill="white"/>
</svg>