<svg width="176" height="291" viewBox="0 0 176 291" fill="none" xmlns="http://www.w3.org/2000/svg">
<path d="M48.0398 174.44L148.632 8.38062L122.02 141.44H175.244L71.7254 283.015L98.6023 174.44" fill="#FFDD77"/>
<path d="M8.12201 174.44L108.714 8.38062L82.1024 141.44H135.326L31.8076 283.015L58.6845 174.44" fill="white"/>
<path d="M31.8076 290.999C30.7421 290.999 29.4115 290.731 28.3486 290.201C24.887 288.603 23.0262 284.611 24.0891 281.152L50.701 174.705C51.7665 170.448 56.0234 167.787 60.2828 168.85C64.5397 169.915 67.2009 174.172 66.1353 178.431L49.3704 245.226L119.359 149.158H82.1025C79.7089 149.158 77.3128 148.093 75.9822 146.229C74.3866 144.366 73.8538 141.973 74.3866 139.577L100.998 6.51727C101.796 2.26041 106.053 -0.668451 110.313 0.131984C114.569 0.92982 117.498 5.18668 116.698 9.44613L91.6843 133.456H135.061C137.987 133.456 140.916 135.052 142.247 137.713C143.577 140.374 143.31 143.568 141.449 145.964L37.9278 287.54C36.8623 289.934 34.4688 290.999 31.8076 290.999Z" fill="#3F4A54"/>
<path d="M8.12201 182.423C6.79141 182.423 5.19574 182.155 3.86515 181.358C0.13845 178.962 -1.19214 174.172 1.20396 170.448L101.796 4.38883C104.192 0.662132 108.982 -0.668461 112.706 1.72765C116.433 4.12375 117.763 8.91337 115.367 12.6375L15.0426 178.431C13.4444 180.825 10.7832 182.423 8.12201 182.423Z" fill="#3F4A54"/>
</svg>